<?xml version="1.0"?>
<svg xmlns="http://www.w3.org/2000/svg" id="Layer" enable-background="new 0 0 64 64" height="512px" viewBox="0 0 64 64" width="512px"><g><path d="m55 32h-5v-8h5c.552 0 1-.448 1-1s-.448-1-1-1h-5c-4.411 0-8-3.589-8-8v-5c0-.552-.448-1-1-1s-1 .448-1 1v5c0 4.411-3.589 8-8 8s-8-3.589-8-8v-5c0-.552-.448-1-1-1s-1 .448-1 1v5c0 4.411-3.589 8-8 8h-5c-.552 0-1 .448-1 1s.448 1 1 1h5v8h-5c-.552 0-1 .448-1 1v8c0 .553.448 1 1 1h5v12h-5c-.552 0-1 .447-1 1s.448 1 1 1h20c.552 0 1-.447 1-1s-.448-1-1-1h-5v-12h16v12h-5c-.552 0-1 .447-1 1s.448 1 1 1h20c.552 0 1-.447 1-1s-.448-1-1-1h-5v-12h5c.552 0 1-.447 1-1v-8c0-.552-.448-1-1-1zm-7-8.226v8.226h-6v-12.043c1.442 1.931 3.556 3.317 6 3.817zm-8-3.817v12.043h-7v-8.073c2.864-.287 5.364-1.779 7-3.97zm-9 3.97v8.073h-7v-12.043c1.636 2.191 4.136 3.683 7 3.97zm-15-.153c2.444-.501 4.558-1.886 6-3.817v12.043h-6zm6 30.226h-6v-12h6zm26 0h-6v-12h6zm6-14h-5-8-18-8-5v-6h44z" data-original="#000000" class="active-path" data-old_color="#000000" fill="#FFFFFF"/><path d="m31.29 54.29c-.18.189-.29.45-.29.71s.11.52.29.71c.19.18.45.29.71.29s.52-.11.71-.29c.18-.19.29-.45.29-.71s-.11-.521-.29-.71c-.37-.37-1.05-.37-1.42 0z" data-original="#000000" class="active-path" data-old_color="#000000" fill="#FFFFFF"/><path d="m15 36c-.552 0-1 .447-1 1s.448 1 1 1h34c.552 0 1-.447 1-1s-.448-1-1-1z" data-original="#000000" class="active-path" data-old_color="#000000" fill="#FFFFFF"/></g> </svg>
