<?xml version="1.0"?>
<svg xmlns="http://www.w3.org/2000/svg" height="512px" viewBox="0 0 496 496" width="512px" class=""><g><path d="m416 224h33.472656c3.3125 9.289062 12.113282 16 22.527344 16 13.230469 0 24-10.769531 24-24s-10.769531-24-24-24c-10.414062 0-19.214844 6.710938-22.527344 16h-33.472656v-20.6875l27.3125-27.3125h6.160156c3.3125 9.289062 12.113282 16 22.527344 16 13.230469 0 24-10.769531 24-24s-10.769531-24-24-24c-10.414062 0-19.214844 6.710938-22.527344 16h-9.472656c-2.121094 0-4.160156.839844-5.65625 2.34375l-18.34375 18.34375v-44.6875c0-22.054688-17.945312-40-40-40h-44.6875l18.34375-18.34375c1.503906-1.496094 2.34375-3.527344 2.34375-5.65625v-9.472656c9.289062-3.3125 16-12.113282 16-22.527344 0-13.230469-10.769531-24-24-24s-24 10.769531-24 24c0 10.414062 6.710938 19.214844 16 22.527344v6.160156l-21.65625 21.65625c-1.503906 1.496094-2.34375 3.527344-2.34375 5.65625h-24v-17.472656c9.289062-3.3125 16-12.113282 16-22.527344 0-13.230469-10.769531-24-24-24s-24 10.769531-24 24c0 10.414062 6.710938 19.214844 16 22.527344v17.472656h-48v-33.472656c9.289062-3.3125 16-12.113282 16-22.527344 0-13.230469-10.769531-24-24-24s-24 10.769531-24 24c0 10.414062 6.710938 19.214844 16 22.527344v33.472656h-20.6875l-27.3125-27.3125v-6.160156c9.289062-3.3125 16-12.113282 16-22.527344 0-13.230469-10.769531-24-24-24s-24 10.769531-24 24c0 10.414062 6.710938 19.214844 16 22.527344v9.472656c0 2.128906.839844 4.160156 2.34375 5.65625l18.34375 18.34375h-44.6875c-22.054688 0-40 17.945312-40 40v44.6875l-18.34375-18.34375c-1.496094-1.503906-3.535156-2.34375-5.65625-2.34375h-9.472656c-3.3125-9.289062-12.113282-16-22.527344-16-13.230469 0-24 10.769531-24 24s10.769531 24 24 24c10.414062 0 19.214844-6.710938 22.527344-16h6.160156l27.3125 27.3125v20.6875h-33.472656c-3.3125-9.289062-12.113282-16-22.527344-16-13.230469 0-24 10.769531-24 24s10.769531 24 24 24c10.414062 0 19.214844-6.710938 22.527344-16h33.472656v48h-17.472656c-3.3125-9.289062-12.113282-16-22.527344-16-13.230469 0-24 10.769531-24 24s10.769531 24 24 24c10.414062 0 19.214844-6.710938 22.527344-16h17.472656v24c-2.121094 0-4.160156.839844-5.65625 2.34375l-21.65625 21.65625h-6.160156c-3.3125-9.289062-12.113282-16-22.527344-16-13.230469 0-24 10.769531-24 24s10.769531 24 24 24c10.414062 0 19.214844-6.710938 22.527344-16h9.472656c2.121094 0 4.160156-.839844 5.65625-2.34375l18.34375-18.34375v44.6875c0 22.054688 17.945312 40 40 40h40v-16h-40c-13.230469 0-24-10.769531-24-24v-256c0-13.230469 10.769531-24 24-24h256c13.230469 0 24 10.769531 24 24v256c0 13.230469-10.769531 24-24 24h-40v16h40c22.054688 0 40-17.945312 40-40v-44.6875l18.34375 18.34375c1.496094 1.503906 3.535156 2.34375 5.65625 2.34375h9.472656c3.3125 9.289062 12.113282 16 22.527344 16 13.230469 0 24-10.769531 24-24s-10.769531-24-24-24c-10.414062 0-19.214844 6.710938-22.527344 16h-6.160156l-21.65625-21.65625c-1.496094-1.503906-3.535156-2.34375-5.65625-2.34375v-24h17.472656c3.3125 9.289062 12.113282 16 22.527344 16 13.230469 0 24-10.769531 24-24s-10.769531-24-24-24c-10.414062 0-19.214844 6.710938-22.527344 16h-17.472656zm56-16c4.40625 0 8 3.585938 8 8s-3.59375 8-8 8-8-3.585938-8-8 3.59375-8 8-8zm0-64c4.40625 0 8 3.585938 8 8s-3.59375 8-8 8-8-3.585938-8-8 3.59375-8 8-8zm-128-128c4.40625 0 8 3.585938 8 8s-3.59375 8-8 8-8-3.585938-8-8 3.59375-8 8-8zm-64 16c4.40625 0 8 3.585938 8 8s-3.59375 8-8 8-8-3.585938-8-8 3.59375-8 8-8zm-64-16c4.40625 0 8 3.585938 8 8s-3.59375 8-8 8-8-3.585938-8-8 3.59375-8 8-8zm-64 0c4.40625 0 8 3.585938 8 8s-3.59375 8-8 8-8-3.585938-8-8 3.59375-8 8-8zm-128 144c-4.40625 0-8-3.585938-8-8s3.59375-8 8-8 8 3.585938 8 8-3.59375 8-8 8zm0 64c-4.40625 0-8-3.585938-8-8s3.59375-8 8-8 8 3.585938 8 8-3.59375 8-8 8zm16 64c-4.40625 0-8-3.585938-8-8s3.59375-8 8-8 8 3.585938 8 8-3.59375 8-8 8zm-16 64c-4.40625 0-8-3.585938-8-8s3.59375-8 8-8 8 3.585938 8 8-3.59375 8-8 8zm448-16c4.40625 0 8 3.585938 8 8s-3.59375 8-8 8-8-3.585938-8-8 3.59375-8 8-8zm-16-64c4.40625 0 8 3.585938 8 8s-3.59375 8-8 8-8-3.585938-8-8 3.59375-8 8-8zm0 0" data-original="#000000" class="active-path" data-old_color="#000000" fill="#FFFFFF"/><path d="m304 371.0625c43.910156-21.382812 72-65.972656 72-115.0625 0-70.574219-57.425781-128-128-128s-128 57.425781-128 128c0 49.089844 28.089844 93.679688 72 115.0625v12.9375h-16v16h16v16h-16v16h16v24c0 4.425781 3.585938 8 8 8h8.808594c3.71875 18.230469 19.871094 32 39.191406 32s35.472656-13.769531 39.191406-32h8.808594c4.414062 0 8-3.574219 8-8v-24h16v-16h-16v-16h16v-16h-16zm-100.800781-12.445312c-33.3125-14.570313-56.992188-44.082032-64.582031-78.617188h30.855468c3.3125 9.289062 12.113282 16 22.527344 16 13.230469 0 24-10.769531 24-24s-10.769531-24-24-24c-10.414062 0-19.214844 6.710938-22.527344 16h-33.175781c-.191406-2.648438-.296875-5.3125-.296875-8 0-4.609375.367188-9.128906.910156-13.601562l26.402344-26.398438h22.160156c3.3125 9.289062 12.113282 16 22.527344 16 13.230469 0 24-10.769531 24-24s-10.769531-24-24-24c-10.414062 0-19.214844 6.710938-22.527344 16h-25.472656c-2.121094 0-4.160156.839844-5.65625 2.34375l-8.992188 8.992188c17.289063-39.574219 56.769532-67.335938 102.648438-67.335938s85.359375 27.761719 102.648438 67.335938l-8.992188-8.992188c-1.496094-1.503906-3.535156-2.34375-5.65625-2.34375h-25.472656c-3.3125-9.289062-12.113282-16-22.527344-16-13.230469 0-24 10.769531-24 24s10.769531 24 24 24c10.414062 0 19.214844-6.710938 22.527344-16h22.160156l26.402344 26.398438c.542968 4.472656.910156 8.992187.910156 13.601562 0 2.6875-.105469 5.351562-.296875 8h-33.175781c-3.3125-9.289062-12.113282-16-22.527344-16-13.230469 0-24 10.769531-24 24s10.769531 24 24 24c10.414062 0 19.214844-6.710938 22.527344-16h30.855468c-7.589843 34.535156-31.269531 64.046875-64.582031 78.617188-2.914062 1.269531-4.800781 4.152343-4.800781 7.328124v18.054688h-32v-49.472656c9.289062-3.3125 16-12.113282 16-22.527344 0-13.230469-10.769531-24-24-24s-24 10.769531-24 24c0 10.414062 6.710938 19.214844 16 22.527344v49.472656h-32v-18.054688c0-3.175781-1.878906-6.058593-4.800781-7.328124zm-19.199219-86.617188c0-4.414062 3.59375-8 8-8s8 3.585938 8 8-3.59375 8-8 8-8-3.585938-8-8zm16-64c0-4.414062 3.59375-8 8-8s8 3.585938 8 8-3.59375 8-8 8-8-3.585938-8-8zm96 0c0 4.414062-3.59375 8-8 8s-8-3.585938-8-8 3.59375-8 8-8 8 3.585938 8 8zm16 64c0 4.414062-3.59375 8-8 8s-8-3.585938-8-8 3.59375-8 8-8 8 3.585938 8 8zm-72 40c0-4.414062 3.59375-8 8-8s8 3.585938 8 8-3.59375 8-8 8-8-3.585938-8-8zm8 168c-10.414062 0-19.214844-6.710938-22.527344-16h45.046875c-3.304687 9.289062-12.105469 16-22.519531 16zm40-32h-80v-16h80zm0-32h-80v-16h80zm0 0" data-original="#000000" class="active-path" data-old_color="#000000" fill="#FFFFFF"/></g> </svg>
