<?xml version="1.0"?>
<svg xmlns="http://www.w3.org/2000/svg" id="Layer" enable-background="new 0 0 64 64" height="512px" viewBox="0 0 64 64" width="512px" class=""><g><path d="m51.174 34.346c-1.396-1.396-3.219-2.205-5.174-2.322v-3.024c0-.53-.211-1.039-.586-1.414l-.58-.58 10.329-7.378c.899-.643 1.107-1.892.465-2.79-.643-.9-1.892-1.106-2.79-.466l-10.872 7.766-1.552-1.552c-.375-.375-.884-.586-1.414-.586h-14c-.53 0-1.039.211-1.414.586l-5 5c-.375.375-.586.884-.586 1.414v3.024c-1.955.117-3.778.925-5.174 2.322l-2.479 2.479c-1.514 1.513-2.347 3.525-2.347 5.665v3.51c0 1.484.821 2.766 2.023 3.456.237 3.647 3.271 6.544 6.977 6.544 1.958 0 3.728-.81 5-2.111 1.272 1.301 3.042 2.111 5 2.111s3.728-.81 5-2.111c1.272 1.301 3.042 2.111 5 2.111s3.728-.81 5-2.111c1.272 1.301 3.042 2.111 5 2.111 3.706 0 6.74-2.897 6.977-6.544 1.202-.69 2.023-1.972 2.023-3.456v-3.51c0-2.141-.833-4.152-2.347-5.665zm-29.174-4.518 3.829-3.828h12.343l3.828 3.828v2.172h-20zm-8.825 9.825 2.48-2.479c.756-.757 1.763-1.174 2.834-1.174h1.511 24 1.511c1.071 0 2.078.417 2.835 1.174l2.479 2.479c.758.758 1.175 1.765 1.175 2.837v1.62c-1.272-1.3-3.042-2.11-5-2.11s-3.728.81-5 2.111c-1.272-1.301-3.042-2.111-5-2.111s-3.728.81-5 2.111c-1.272-1.301-3.042-2.111-5-2.111s-3.728.81-5 2.111c-1.272-1.301-3.042-2.111-5-2.111s-3.728.81-5 2.111v-1.62c0-1.073.417-2.08 1.175-2.838zm3.825 12.347c-1.654 0-3-1.346-3-3s1.346-3 3-3 3 1.346 3 3-1.346 3-3 3zm10 0c-1.654 0-3-1.346-3-3s1.346-3 3-3 3 1.346 3 3-1.346 3-3 3zm10 0c-1.654 0-3-1.346-3-3s1.346-3 3-3 3 1.346 3 3-1.346 3-3 3zm10 0c-1.654 0-3-1.346-3-3s1.346-3 3-3 3 1.346 3 3-1.346 3-3 3z" data-original="#000000" class="active-path" data-old_color="#000000" fill="#FFFFFF"/></g> </svg>
